<svg width="22.000000" height="16.000000" viewBox="0 0 22 16" fill="none" xmlns="http://www.w3.org/2000/svg" xmlns:xlink="http://www.w3.org/1999/xlink">
	<desc>
			Created with Pixso.
	</desc>
	<defs/>
	<path id="Vector" d="M9.35 13L15 7.35L13.55 5.89L9.33 10.12L7.22 8.02L5.8 9.45L9.35 13ZM5.5 16C3.97 16 2.68 15.47 1.61 14.43C0.53 13.37 0 12.09 0 10.58C0 9.27 0.38 8.12 1.16 7.1C1.95 6.08 2.98 5.43 4.25 5.14C4.66 3.61 5.5 2.37 6.75 1.43C8 0.47 9.41 0 11 0C12.95 0 14.6 0.68 15.96 2.04C17.32 3.39 18 5.04 18 7C19.15 7.13 20.1 7.63 20.86 8.5C21.62 9.35 22 10.35 22 11.5C22 12.75 21.56 13.81 20.68 14.68C19.81 15.56 18.75 16 17.5 16L5.5 16Z" fill="#B4B4B4" fill-opacity="1.000000" fill-rule="nonzero"/>
</svg>
