<svg width="20.000000" height="20.000000" viewBox="0 0 20 20" fill="none" xmlns="http://www.w3.org/2000/svg" xmlns:xlink="http://www.w3.org/1999/xlink">
	<desc>
			Created with Pixso.
	</desc>
	<defs/>
	<path id="Vector" d="M10 0C4.5 0 0 4.5 0 10C0 15.5 4.5 20 10 20C15.5 20 20 15.5 20 10C20 4.5 15.5 0 10 0ZM6.83 5.04C7.8 5.04 8.59 5.83 8.59 6.83C8.59 7.81 7.8 8.6 6.83 8.6C5.83 8.6 5.04 7.81 5.04 6.83C5.04 5.83 5.83 5.04 6.83 5.04ZM13.21 15C12.24 15 11.45 14.2 11.45 13.22C11.45 12.24 12.24 11.45 13.21 11.45C14.2 11.45 15 12.24 15 13.22C15 14.2 14.2 15 13.21 15ZM6.5 15.02L5 13.52L13.53 5L15.03 6.5L6.5 15.02Z" fill="#FFFFFF" fill-opacity="0.500000" fill-rule="nonzero"/>
</svg>
