<svg width="24.000000" height="24.000000" viewBox="0 0 24 24" fill="none" xmlns="http://www.w3.org/2000/svg" xmlns:xlink="http://www.w3.org/1999/xlink">
	<desc>
			Created with Pixso.
	</desc>
	<defs>
		<clipPath id="clip7_8126">
			<rect id="users" rx="-0.500000" width="23.000000" height="23.000000" transform="translate(0.500000 0.500000)" fill="white" fill-opacity="0"/>
		</clipPath>
	</defs>
	<rect id="users" rx="-0.500000" width="23.000000" height="23.000000" transform="translate(0.500000 0.500000)" fill="#FFFFFF" fill-opacity="0"/>
	<g clip-path="url(#clip7_8126)">
		<path id="Vector" d="M16 17L16 19L2 19L2 17C2 17 2 13 9 13C16 13 16 17 16 17ZM12.5 7.5C12.5 6.8 12.29 6.13 11.91 5.55C11.52 4.97 10.97 4.53 10.33 4.26C9.69 4 8.99 3.93 8.31 4.06C7.63 4.2 7.01 4.53 6.52 5.02C6.03 5.51 5.7 6.13 5.56 6.81C5.43 7.49 5.5 8.19 5.76 8.83C6.03 9.47 6.47 10.02 7.05 10.41C7.63 10.79 8.3 11 9 11C9.92 11 10.81 10.63 11.47 9.97C12.13 9.31 12.5 8.42 12.5 7.5ZM15.93 13C16.55 13.47 17.05 14.08 17.41 14.77C17.76 15.46 17.96 16.22 18 17L18 19L22 19L22 17C22 17 22 13.37 15.93 13ZM15 4C14.31 3.99 13.63 4.2 13.07 4.58C13.67 5.43 14 6.45 14 7.5C14 8.54 13.67 9.56 13.07 10.41C13.63 10.79 14.31 11 15 11C15.92 11 16.81 10.63 17.47 9.97C18.13 9.31 18.5 8.42 18.5 7.5C18.5 6.57 18.13 5.68 17.47 5.02C16.81 4.36 15.92 4 15 4Z" fill="#B4B4B4" fill-opacity="1.000000" fill-rule="nonzero"/>
	</g>
</svg>
