<svg width="30" height="32" viewBox="0 0 30 32" fill="none" xmlns="http://www.w3.org/2000/svg">
<path d="M29.5125 20.0115L27.2133 18.0463C27.3223 17.3783 27.3785 16.6963 27.3785 16.0178C27.3785 15.3393 27.3223 14.6537 27.2133 13.9893L29.5125 12.024C29.6862 11.8753 29.8105 11.6773 29.8689 11.4562C29.9273 11.2352 29.917 11.0016 29.8395 10.7865L29.8078 10.6951C29.175 8.92567 28.2269 7.28551 27.0094 5.8541L26.9461 5.78027C26.7982 5.60643 26.6012 5.48147 26.3809 5.42185C26.1606 5.36223 25.9275 5.37075 25.7121 5.44629L22.8574 6.4623C21.8027 5.59746 20.6285 4.91543 19.3559 4.44082L18.8039 1.45605C18.7623 1.2312 18.6532 1.02434 18.4912 0.862961C18.3292 0.701577 18.1219 0.593309 17.8969 0.552539L17.802 0.534961C15.9738 0.204492 14.0473 0.204492 12.2191 0.534961L12.1242 0.552539C11.8992 0.593309 11.6919 0.701577 11.5299 0.862961C11.3679 1.02434 11.2588 1.2312 11.2172 1.45605L10.6617 4.45488C9.40112 4.93328 8.22678 5.61365 7.18477 6.46934L4.30899 5.44629C4.09371 5.37015 3.86036 5.36132 3.63994 5.42098C3.41953 5.48063 3.22249 5.60595 3.075 5.78027L3.01172 5.8541C1.79634 7.28704 0.848455 8.92679 0.213283 10.6951L0.181642 10.7865C0.0234392 11.226 0.153517 11.7182 0.508596 12.024L2.83594 14.0104C2.72695 14.6713 2.67422 15.3463 2.67422 16.0143C2.67422 16.6893 2.72695 17.3643 2.83594 18.0182L0.515627 20.0045C0.34194 20.1532 0.21763 20.3512 0.159227 20.5723C0.100823 20.7933 0.111094 21.0269 0.188673 21.242L0.220314 21.3334C0.856642 23.1018 1.79531 24.7365 3.01875 26.1744L3.08203 26.2482C3.22988 26.4221 3.42693 26.547 3.64721 26.6067C3.8675 26.6663 4.10067 26.6578 4.31602 26.5822L7.1918 25.5592C8.23945 26.4205 9.40664 27.1025 10.6688 27.5736L11.2242 30.5725C11.2659 30.7973 11.3749 31.0042 11.5369 31.1656C11.699 31.3269 11.9062 31.4352 12.1313 31.476L12.2262 31.4936C14.0723 31.8258 15.9629 31.8258 17.809 31.4936L17.9039 31.476C18.1289 31.4352 18.3362 31.3269 18.4982 31.1656C18.6602 31.0042 18.7693 30.7973 18.8109 30.5725L19.3629 27.5877C20.6355 27.1096 21.8098 26.4311 22.8645 25.5662L25.7191 26.5822C25.9344 26.6584 26.1678 26.6672 26.3882 26.6075C26.6086 26.5479 26.8056 26.4226 26.9531 26.2482L27.0164 26.1744C28.2398 24.7295 29.1785 23.1018 29.8148 21.3334L29.8465 21.242C29.9977 20.8061 29.8676 20.3174 29.5125 20.0115ZM15.0176 21.8467C11.6039 21.8467 8.83711 19.0799 8.83711 15.6662C8.83711 12.2525 11.6039 9.48574 15.0176 9.48574C18.4312 9.48574 21.198 12.2525 21.198 15.6662C21.198 19.0799 18.4312 21.8467 15.0176 21.8467Z" fill="#B4B4B4"/>
</svg>
