<svg width="36" height="36" viewBox="0 0 36 36" fill="none" xmlns="http://www.w3.org/2000/svg">
<g clip-path="url(#clip0_941_3605)">
<path d="M21.4965 17.0863L20.9025 15.7903L19.6065 15.1963C18.9045 14.8723 18.9045 13.8823 19.6065 13.5583L20.9025 12.9643L21.4965 11.6863C21.8205 10.9843 22.8105 10.9843 23.1345 11.6863L23.7285 12.9823L25.0065 13.5763C25.7085 13.9003 25.7085 14.8903 25.0065 15.2143L23.7105 15.8083L23.1165 17.0863C22.8105 17.7883 21.8025 17.7883 21.4965 17.0863ZM6.9165 20.6863L7.5105 19.3903L8.8065 18.7963C9.5085 18.4723 9.5085 17.4823 8.8065 17.1583L7.5105 16.5823L6.9165 15.2863C6.6105 14.5843 5.6025 14.5843 5.2965 15.2863L4.7025 16.5823L3.4065 17.1763C2.7045 17.4823 2.7045 18.4903 3.4065 18.7963L4.7025 19.3903L5.2965 20.6863C5.6025 21.3883 6.6105 21.3883 6.9165 20.6863ZM13.2165 13.4863L14.0985 11.5783L16.0065 10.6963C16.7085 10.3723 16.7085 9.38227 16.0065 9.05827L14.0985 8.19427L13.2165 6.28627C12.9105 5.58427 11.9025 5.58427 11.5965 6.28627L10.7145 8.19427L8.8065 9.07627C8.1045 9.38227 8.1045 10.3903 8.8065 10.6963L10.7145 11.5783L11.5965 13.4863C11.9025 14.1883 12.9105 14.1883 13.2165 13.4863ZM32.9985 13.4863C32.4405 12.9823 31.5945 13.0363 31.0905 13.5943L21.8925 23.9443L17.2845 19.3363C16.5825 18.6343 15.4485 18.6343 14.7465 19.3363L6.1785 27.9223C5.6565 28.4443 5.6565 29.3083 6.1785 29.8303C6.7005 30.3523 7.5645 30.3523 8.0865 29.8303L16.0065 21.8923L20.6505 26.5363C21.3885 27.2743 22.5765 27.2383 23.2605 26.4643L33.1065 15.3943C33.6105 14.8363 33.5565 13.9723 32.9985 13.4863Z" fill="#B4B4B4"/>
</g>
<defs>
<clipPath id="clip0_941_3605">
<rect width="36" height="36" fill="white"/>
</clipPath>
</defs>
</svg>
