<svg width="22.000000" height="16.000000" viewBox="0 0 22 16" fill="none" xmlns="http://www.w3.org/2000/svg" xmlns:xlink="http://www.w3.org/1999/xlink">
	<desc>
			Created with Pixso.
	</desc>
	<defs/>
	<path id="Vector" d="M4 0L22 0L22 12L4 12L4 0ZM13 3C13.79 3 14.55 3.31 15.12 3.87C15.68 4.44 16 5.2 16 6C16 6.79 15.68 7.55 15.12 8.12C14.55 8.68 13.79 9 13 9C12.2 9 11.44 8.68 10.87 8.12C10.31 7.55 10 6.79 10 6C10 5.2 10.31 4.44 10.87 3.87C11.44 3.31 12.2 3 13 3ZM8 2C8 2.53 7.78 3.03 7.41 3.41C7.03 3.78 6.53 4 6 4L6 8C6.53 8 7.03 8.21 7.41 8.58C7.78 8.96 8 9.46 8 10L18 10C18 9.46 18.21 8.96 18.58 8.58C18.96 8.21 19.46 8 20 8L20 4C19.46 4 18.96 3.78 18.58 3.41C18.21 3.03 18 2.53 18 2L8 2ZM0 4L2 4L2 14L18 14L18 16L0 16L0 4Z" fill="#B4B4B4" fill-opacity="1.000000" fill-rule="nonzero"/>
</svg>
