<svg width="19.950439" height="19.970215" viewBox="0 0 19.9504 19.9702" fill="none" xmlns="http://www.w3.org/2000/svg" xmlns:xlink="http://www.w3.org/1999/xlink">
	<desc>
			Created with Pixso.
	</desc>
	<defs/>
	<path id="Vector" d="M10.95 0L10.95 0.02L10.95 2.02C15.34 2.56 18.45 6.54 17.9 10.93C17.45 14.58 14.59 17.47 10.95 17.89L10.95 19.89C16.45 19.35 20.45 14.47 19.89 8.97C19.45 4.22 15.67 0.47 10.95 0ZM8.94 0.02C7 0.22 5.13 0.97 3.62 2.22L5.05 3.7C6.16 2.81 7.52 2.22 8.94 2.02L8.94 0.02ZM2.2 3.64C0.94 5.16 0.19 7 0 8.97L2 8.97C2.18 7.54 2.75 6.2 3.63 5.06L2.2 3.64ZM0.01 10.97C0.2 12.93 0.97 14.77 2.21 16.29L3.63 14.87C2.76 13.74 2.18 12.39 2.01 10.97L0.01 10.97ZM5.05 16.33L3.62 17.7C5.12 18.97 6.98 19.75 8.94 19.97L8.94 17.97C7.53 17.79 6.17 17.22 5.05 16.33ZM10.45 4.97L10.45 10.22L14.95 12.89L14.2 14.12L8.94 10.97L8.94 4.97L10.45 4.97Z" fill="#B4B4B4" fill-opacity="1.000000" fill-rule="nonzero"/>
</svg>
